<mxfile host="app.diagrams.net" agent="Mozilla/5.0 (Windows NT 10.0; Win64; x64) AppleWebKit/537.36 (KHTML, like Gecko) Chrome/134.0.0.0 Safari/537.36" version="26.1.3">
  <diagram name="Страница — 1" id="z6JhaKLhRKP4T5ZWZCsY">
    <mxGraphModel dx="2227" dy="2040" grid="1" gridSize="10" guides="1" tooltips="1" connect="1" arrows="1" fold="1" page="1" pageScale="1" pageWidth="827" pageHeight="1169" math="0" shadow="0">
      <root>
        <mxCell id="0" />
        <mxCell id="1" parent="0" />
        <mxCell id="4D9p2KJwW67Cen0CYVgP-2" value="Entity" style="swimlane;fontStyle=0;childLayout=stackLayout;horizontal=1;startSize=30;horizontalStack=0;resizeParent=1;resizeParentMax=0;resizeLast=0;collapsible=1;marginBottom=0;whiteSpace=wrap;html=1;" parent="1" vertex="1">
          <mxGeometry x="10" y="-30" width="140" height="180" as="geometry">
            <mxRectangle x="50" y="70" width="60" height="30" as="alternateBounds" />
          </mxGeometry>
        </mxCell>
        <mxCell id="4D9p2KJwW67Cen0CYVgP-3" value="std::string name" style="text;strokeColor=none;fillColor=none;align=left;verticalAlign=middle;spacingLeft=4;spacingRight=4;overflow=hidden;points=[[0,0.5],[1,0.5]];portConstraint=eastwest;rotatable=0;whiteSpace=wrap;html=1;" parent="4D9p2KJwW67Cen0CYVgP-2" vertex="1">
          <mxGeometry y="30" width="140" height="30" as="geometry" />
        </mxCell>
        <mxCell id="4D9p2KJwW67Cen0CYVgP-4" value="int health" style="text;strokeColor=none;fillColor=none;align=left;verticalAlign=middle;spacingLeft=4;spacingRight=4;overflow=hidden;points=[[0,0.5],[1,0.5]];portConstraint=eastwest;rotatable=0;whiteSpace=wrap;html=1;" parent="4D9p2KJwW67Cen0CYVgP-2" vertex="1">
          <mxGeometry y="60" width="140" height="30" as="geometry" />
        </mxCell>
        <mxCell id="4D9p2KJwW67Cen0CYVgP-117" value="void DisplayInfo" style="text;strokeColor=none;fillColor=none;align=left;verticalAlign=middle;spacingLeft=4;spacingRight=4;overflow=hidden;points=[[0,0.5],[1,0.5]];portConstraint=eastwest;rotatable=0;whiteSpace=wrap;html=1;" parent="4D9p2KJwW67Cen0CYVgP-2" vertex="1">
          <mxGeometry y="90" width="140" height="30" as="geometry" />
        </mxCell>
        <mxCell id="4D9p2KJwW67Cen0CYVgP-118" value="bool isAlive" style="text;strokeColor=none;fillColor=none;align=left;verticalAlign=middle;spacingLeft=4;spacingRight=4;overflow=hidden;points=[[0,0.5],[1,0.5]];portConstraint=eastwest;rotatable=0;whiteSpace=wrap;html=1;" parent="4D9p2KJwW67Cen0CYVgP-2" vertex="1">
          <mxGeometry y="120" width="140" height="30" as="geometry" />
        </mxCell>
        <mxCell id="4D9p2KJwW67Cen0CYVgP-119" value="void TakeDamage(int damage)" style="text;strokeColor=none;fillColor=none;align=left;verticalAlign=middle;spacingLeft=4;spacingRight=4;overflow=hidden;points=[[0,0.5],[1,0.5]];portConstraint=eastwest;rotatable=0;whiteSpace=wrap;html=1;" parent="4D9p2KJwW67Cen0CYVgP-2" vertex="1">
          <mxGeometry y="150" width="140" height="30" as="geometry" />
        </mxCell>
        <mxCell id="4D9p2KJwW67Cen0CYVgP-120" value="" style="endArrow=none;html=1;rounded=0;exitX=0.027;exitY=0.042;exitDx=0;exitDy=0;exitPerimeter=0;entryX=0.982;entryY=0.042;entryDx=0;entryDy=0;entryPerimeter=0;" parent="4D9p2KJwW67Cen0CYVgP-2" source="4D9p2KJwW67Cen0CYVgP-117" target="4D9p2KJwW67Cen0CYVgP-117" edge="1">
          <mxGeometry width="50" height="50" relative="1" as="geometry">
            <mxPoint x="490" y="310" as="sourcePoint" />
            <mxPoint x="540" y="260" as="targetPoint" />
          </mxGeometry>
        </mxCell>
        <mxCell id="4D9p2KJwW67Cen0CYVgP-6" value="&lt;br&gt;&lt;h3 style=&quot;font-weight: var(--ds-font-weight-strong); font-size: calc(var(--ds-md-zoom)*16px); line-height: 1.5; margin: calc(var(--ds-md-zoom)*16px)0 calc(var(--ds-md-zoom)*12px)0; color: rgb(248, 250, 255); font-family: Inter, system-ui, -apple-system, BlinkMacSystemFont, &amp;quot;Segoe UI&amp;quot;, Roboto, &amp;quot;Noto Sans&amp;quot;, Ubuntu, Cantarell, &amp;quot;Helvetica Neue&amp;quot;, Oxygen, &amp;quot;Open Sans&amp;quot;, sans-serif; text-align: start; text-wrap-mode: wrap; background-color: rgb(41, 42, 45);&quot;&gt;&lt;strong&gt;Dungeon Quest: Heroes of the Abyss&lt;/strong&gt;&lt;/h3&gt;" style="text;html=1;align=center;verticalAlign=middle;resizable=0;points=[];autosize=1;strokeColor=none;fillColor=none;" parent="1" vertex="1">
          <mxGeometry x="-170" y="50" width="230" height="50" as="geometry" />
        </mxCell>
        <mxCell id="4D9p2KJwW67Cen0CYVgP-8" value="Hero" style="swimlane;fontStyle=0;childLayout=stackLayout;horizontal=1;startSize=30;horizontalStack=0;resizeParent=1;resizeParentMax=0;resizeLast=0;collapsible=1;marginBottom=0;whiteSpace=wrap;html=1;" parent="1" vertex="1">
          <mxGeometry x="230" y="260" width="140" height="150" as="geometry" />
        </mxCell>
        <mxCell id="4D9p2KJwW67Cen0CYVgP-9" value="int level" style="text;strokeColor=none;fillColor=none;align=left;verticalAlign=middle;spacingLeft=4;spacingRight=4;overflow=hidden;points=[[0,0.5],[1,0.5]];portConstraint=eastwest;rotatable=0;whiteSpace=wrap;html=1;" parent="4D9p2KJwW67Cen0CYVgP-8" vertex="1">
          <mxGeometry y="30" width="140" height="30" as="geometry" />
        </mxCell>
        <mxCell id="4D9p2KJwW67Cen0CYVgP-11" value="int experience" style="text;strokeColor=none;fillColor=none;align=left;verticalAlign=middle;spacingLeft=4;spacingRight=4;overflow=hidden;points=[[0,0.5],[1,0.5]];portConstraint=eastwest;rotatable=0;whiteSpace=wrap;html=1;" parent="4D9p2KJwW67Cen0CYVgP-8" vertex="1">
          <mxGeometry y="60" width="140" height="30" as="geometry" />
        </mxCell>
        <mxCell id="4D9p2KJwW67Cen0CYVgP-127" value="" style="endArrow=none;html=1;rounded=0;" parent="4D9p2KJwW67Cen0CYVgP-8" edge="1">
          <mxGeometry width="50" height="50" relative="1" as="geometry">
            <mxPoint y="90" as="sourcePoint" />
            <mxPoint x="142" y="90" as="targetPoint" />
          </mxGeometry>
        </mxCell>
        <mxCell id="4D9p2KJwW67Cen0CYVgP-125" value="void levelUp()" style="text;strokeColor=none;fillColor=none;align=left;verticalAlign=middle;spacingLeft=4;spacingRight=4;overflow=hidden;points=[[0,0.5],[1,0.5]];portConstraint=eastwest;rotatable=0;whiteSpace=wrap;html=1;" parent="4D9p2KJwW67Cen0CYVgP-8" vertex="1">
          <mxGeometry y="90" width="140" height="20" as="geometry" />
        </mxCell>
        <mxCell id="4D9p2KJwW67Cen0CYVgP-126" value="void UseItem(const Item&amp;amp; item)" style="text;strokeColor=none;fillColor=none;align=left;verticalAlign=middle;spacingLeft=4;spacingRight=4;overflow=hidden;points=[[0,0.5],[1,0.5]];portConstraint=eastwest;rotatable=0;whiteSpace=wrap;html=1;" parent="4D9p2KJwW67Cen0CYVgP-8" vertex="1">
          <mxGeometry y="110" width="140" height="40" as="geometry" />
        </mxCell>
        <mxCell id="4D9p2KJwW67Cen0CYVgP-12" value="Character" style="swimlane;fontStyle=0;childLayout=stackLayout;horizontal=1;startSize=30;horizontalStack=0;resizeParent=1;resizeParentMax=0;resizeLast=0;collapsible=1;marginBottom=0;whiteSpace=wrap;html=1;" parent="1" vertex="1">
          <mxGeometry x="230" y="40" width="140" height="180" as="geometry" />
        </mxCell>
        <mxCell id="4D9p2KJwW67Cen0CYVgP-13" value="int attack" style="text;strokeColor=none;fillColor=none;align=left;verticalAlign=middle;spacingLeft=4;spacingRight=4;overflow=hidden;points=[[0,0.5],[1,0.5]];portConstraint=eastwest;rotatable=0;whiteSpace=wrap;html=1;" parent="4D9p2KJwW67Cen0CYVgP-12" vertex="1">
          <mxGeometry y="30" width="140" height="30" as="geometry" />
        </mxCell>
        <mxCell id="4D9p2KJwW67Cen0CYVgP-14" value="int defense" style="text;strokeColor=none;fillColor=none;align=left;verticalAlign=middle;spacingLeft=4;spacingRight=4;overflow=hidden;points=[[0,0.5],[1,0.5]];portConstraint=eastwest;rotatable=0;whiteSpace=wrap;html=1;" parent="4D9p2KJwW67Cen0CYVgP-12" vertex="1">
          <mxGeometry y="60" width="140" height="30" as="geometry" />
        </mxCell>
        <mxCell id="4D9p2KJwW67Cen0CYVgP-15" value="void attackTarget(Character&amp;amp; target" style="text;strokeColor=none;fillColor=none;align=left;verticalAlign=middle;spacingLeft=4;spacingRight=4;overflow=hidden;points=[[0,0.5],[1,0.5]];portConstraint=eastwest;rotatable=0;whiteSpace=wrap;html=1;" parent="4D9p2KJwW67Cen0CYVgP-12" vertex="1">
          <mxGeometry y="90" width="140" height="60" as="geometry" />
        </mxCell>
        <mxCell id="4D9p2KJwW67Cen0CYVgP-121" value="void defend()" style="text;strokeColor=none;fillColor=none;align=left;verticalAlign=middle;spacingLeft=4;spacingRight=4;overflow=hidden;points=[[0,0.5],[1,0.5]];portConstraint=eastwest;rotatable=0;whiteSpace=wrap;html=1;" parent="4D9p2KJwW67Cen0CYVgP-12" vertex="1">
          <mxGeometry y="150" width="140" height="30" as="geometry" />
        </mxCell>
        <mxCell id="4D9p2KJwW67Cen0CYVgP-123" value="" style="endArrow=none;html=1;rounded=0;exitX=0.025;exitY=0.086;exitDx=0;exitDy=0;exitPerimeter=0;entryX=0.974;entryY=0.086;entryDx=0;entryDy=0;entryPerimeter=0;" parent="4D9p2KJwW67Cen0CYVgP-12" source="4D9p2KJwW67Cen0CYVgP-15" target="4D9p2KJwW67Cen0CYVgP-15" edge="1">
          <mxGeometry width="50" height="50" relative="1" as="geometry">
            <mxPoint x="260" y="310" as="sourcePoint" />
            <mxPoint x="310" y="260" as="targetPoint" />
          </mxGeometry>
        </mxCell>
        <mxCell id="4D9p2KJwW67Cen0CYVgP-20" value="Item" style="swimlane;fontStyle=0;childLayout=stackLayout;horizontal=1;startSize=30;horizontalStack=0;resizeParent=1;resizeParentMax=0;resizeLast=0;collapsible=1;marginBottom=0;whiteSpace=wrap;html=1;" parent="1" vertex="1">
          <mxGeometry x="1020" y="-280" width="120" height="280" as="geometry">
            <mxRectangle x="1030" y="-160" width="60" height="30" as="alternateBounds" />
          </mxGeometry>
        </mxCell>
        <mxCell id="4D9p2KJwW67Cen0CYVgP-21" value="std::string name" style="text;strokeColor=none;fillColor=none;align=left;verticalAlign=middle;spacingLeft=4;spacingRight=4;overflow=hidden;points=[[0,0.5],[1,0.5]];portConstraint=eastwest;rotatable=0;whiteSpace=wrap;html=1;" parent="4D9p2KJwW67Cen0CYVgP-20" vertex="1">
          <mxGeometry y="30" width="120" height="30" as="geometry" />
        </mxCell>
        <mxCell id="4D9p2KJwW67Cen0CYVgP-22" value="std::string description" style="text;strokeColor=none;fillColor=none;align=left;verticalAlign=middle;spacingLeft=4;spacingRight=4;overflow=hidden;points=[[0,0.5],[1,0.5]];portConstraint=eastwest;rotatable=0;whiteSpace=wrap;html=1;" parent="4D9p2KJwW67Cen0CYVgP-20" vertex="1">
          <mxGeometry y="60" width="120" height="40" as="geometry" />
        </mxCell>
        <mxCell id="4D9p2KJwW67Cen0CYVgP-23" value="int weight" style="text;strokeColor=none;fillColor=none;align=left;verticalAlign=middle;spacingLeft=4;spacingRight=4;overflow=hidden;points=[[0,0.5],[1,0.5]];portConstraint=eastwest;rotatable=0;whiteSpace=wrap;html=1;" parent="4D9p2KJwW67Cen0CYVgP-20" vertex="1">
          <mxGeometry y="100" width="120" height="30" as="geometry" />
        </mxCell>
        <mxCell id="4D9p2KJwW67Cen0CYVgP-140" value="bool is Consumable" style="text;strokeColor=none;fillColor=none;align=left;verticalAlign=middle;spacingLeft=4;spacingRight=4;overflow=hidden;points=[[0,0.5],[1,0.5]];portConstraint=eastwest;rotatable=0;whiteSpace=wrap;html=1;" parent="4D9p2KJwW67Cen0CYVgP-20" vertex="1">
          <mxGeometry y="130" width="120" height="30" as="geometry" />
        </mxCell>
        <mxCell id="4D9p2KJwW67Cen0CYVgP-148" value="void use()" style="text;strokeColor=none;fillColor=none;align=left;verticalAlign=middle;spacingLeft=4;spacingRight=4;overflow=hidden;points=[[0,0.5],[1,0.5]];portConstraint=eastwest;rotatable=0;whiteSpace=wrap;html=1;" parent="4D9p2KJwW67Cen0CYVgP-20" vertex="1">
          <mxGeometry y="160" width="120" height="30" as="geometry" />
        </mxCell>
        <mxCell id="4D9p2KJwW67Cen0CYVgP-149" value="void inspect()" style="text;strokeColor=none;fillColor=none;align=left;verticalAlign=middle;spacingLeft=4;spacingRight=4;overflow=hidden;points=[[0,0.5],[1,0.5]];portConstraint=eastwest;rotatable=0;whiteSpace=wrap;html=1;" parent="4D9p2KJwW67Cen0CYVgP-20" vertex="1">
          <mxGeometry y="190" width="120" height="30" as="geometry" />
        </mxCell>
        <mxCell id="4D9p2KJwW67Cen0CYVgP-150" value="void drop()" style="text;strokeColor=none;fillColor=none;align=left;verticalAlign=middle;spacingLeft=4;spacingRight=4;overflow=hidden;points=[[0,0.5],[1,0.5]];portConstraint=eastwest;rotatable=0;whiteSpace=wrap;html=1;" parent="4D9p2KJwW67Cen0CYVgP-20" vertex="1">
          <mxGeometry y="220" width="120" height="30" as="geometry" />
        </mxCell>
        <mxCell id="4D9p2KJwW67Cen0CYVgP-151" value="void upgrade()" style="text;strokeColor=none;fillColor=none;align=left;verticalAlign=middle;spacingLeft=4;spacingRight=4;overflow=hidden;points=[[0,0.5],[1,0.5]];portConstraint=eastwest;rotatable=0;whiteSpace=wrap;html=1;" parent="4D9p2KJwW67Cen0CYVgP-20" vertex="1">
          <mxGeometry y="250" width="120" height="30" as="geometry" />
        </mxCell>
        <mxCell id="4D9p2KJwW67Cen0CYVgP-156" value="" style="endArrow=none;html=1;rounded=0;exitX=0.003;exitY=0.184;exitDx=0;exitDy=0;exitPerimeter=0;entryX=1.004;entryY=0.165;entryDx=0;entryDy=0;entryPerimeter=0;" parent="4D9p2KJwW67Cen0CYVgP-20" source="4D9p2KJwW67Cen0CYVgP-148" target="4D9p2KJwW67Cen0CYVgP-148" edge="1">
          <mxGeometry width="50" height="50" relative="1" as="geometry">
            <mxPoint x="70" y="310" as="sourcePoint" />
            <mxPoint x="120" y="260" as="targetPoint" />
          </mxGeometry>
        </mxCell>
        <mxCell id="4D9p2KJwW67Cen0CYVgP-34" value="" style="endArrow=classic;html=1;rounded=0;exitX=0.5;exitY=0;exitDx=0;exitDy=0;" parent="1" source="4D9p2KJwW67Cen0CYVgP-8" edge="1">
          <mxGeometry width="50" height="50" relative="1" as="geometry">
            <mxPoint x="690" y="220" as="sourcePoint" />
            <mxPoint x="300" y="220" as="targetPoint" />
          </mxGeometry>
        </mxCell>
        <mxCell id="4D9p2KJwW67Cen0CYVgP-35" value="" style="endArrow=classic;html=1;rounded=0;exitX=0;exitY=0.5;exitDx=0;exitDy=0;entryX=1;entryY=0.5;entryDx=0;entryDy=0;" parent="1" source="4D9p2KJwW67Cen0CYVgP-14" target="4D9p2KJwW67Cen0CYVgP-4" edge="1">
          <mxGeometry width="50" height="50" relative="1" as="geometry">
            <mxPoint x="690" y="220" as="sourcePoint" />
            <mxPoint x="740" y="170" as="targetPoint" />
          </mxGeometry>
        </mxCell>
        <mxCell id="4D9p2KJwW67Cen0CYVgP-36" value="Mage" style="swimlane;fontStyle=0;childLayout=stackLayout;horizontal=1;startSize=30;horizontalStack=0;resizeParent=1;resizeParentMax=0;resizeLast=0;collapsible=1;marginBottom=0;whiteSpace=wrap;html=1;" parent="1" vertex="1">
          <mxGeometry x="80" y="490" width="140" height="180" as="geometry" />
        </mxCell>
        <mxCell id="4D9p2KJwW67Cen0CYVgP-37" value="int mana" style="text;strokeColor=none;fillColor=none;align=left;verticalAlign=middle;spacingLeft=4;spacingRight=4;overflow=hidden;points=[[0,0.5],[1,0.5]];portConstraint=eastwest;rotatable=0;whiteSpace=wrap;html=1;" parent="4D9p2KJwW67Cen0CYVgP-36" vertex="1">
          <mxGeometry y="30" width="140" height="30" as="geometry" />
        </mxCell>
        <mxCell id="4D9p2KJwW67Cen0CYVgP-38" value="int spellPower" style="text;strokeColor=none;fillColor=none;align=left;verticalAlign=middle;spacingLeft=4;spacingRight=4;overflow=hidden;points=[[0,0.5],[1,0.5]];portConstraint=eastwest;rotatable=0;whiteSpace=wrap;html=1;" parent="4D9p2KJwW67Cen0CYVgP-36" vertex="1">
          <mxGeometry y="60" width="140" height="30" as="geometry" />
        </mxCell>
        <mxCell id="4D9p2KJwW67Cen0CYVgP-39" value="void castSpell(Character&amp;amp; target" style="text;strokeColor=none;fillColor=none;align=left;verticalAlign=middle;spacingLeft=4;spacingRight=4;overflow=hidden;points=[[0,0.5],[1,0.5]];portConstraint=eastwest;rotatable=0;whiteSpace=wrap;html=1;" parent="4D9p2KJwW67Cen0CYVgP-36" vertex="1">
          <mxGeometry y="90" width="140" height="60" as="geometry" />
        </mxCell>
        <mxCell id="4D9p2KJwW67Cen0CYVgP-131" value="void heal()" style="text;strokeColor=none;fillColor=none;align=left;verticalAlign=middle;spacingLeft=4;spacingRight=4;overflow=hidden;points=[[0,0.5],[1,0.5]];portConstraint=eastwest;rotatable=0;whiteSpace=wrap;html=1;" parent="4D9p2KJwW67Cen0CYVgP-36" vertex="1">
          <mxGeometry y="150" width="140" height="30" as="geometry" />
        </mxCell>
        <mxCell id="4D9p2KJwW67Cen0CYVgP-132" value="" style="endArrow=none;html=1;rounded=0;exitX=0.004;exitY=0.064;exitDx=0;exitDy=0;exitPerimeter=0;" parent="4D9p2KJwW67Cen0CYVgP-36" source="4D9p2KJwW67Cen0CYVgP-39" edge="1">
          <mxGeometry width="50" height="50" relative="1" as="geometry">
            <mxPoint x="-10" y="91" as="sourcePoint" />
            <mxPoint x="140" y="94" as="targetPoint" />
          </mxGeometry>
        </mxCell>
        <mxCell id="4D9p2KJwW67Cen0CYVgP-40" value="Warrior" style="swimlane;fontStyle=0;childLayout=stackLayout;horizontal=1;startSize=30;horizontalStack=0;resizeParent=1;resizeParentMax=0;resizeLast=0;collapsible=1;marginBottom=0;whiteSpace=wrap;html=1;" parent="1" vertex="1">
          <mxGeometry x="390" y="490" width="140" height="140" as="geometry" />
        </mxCell>
        <mxCell id="4D9p2KJwW67Cen0CYVgP-41" value="int rage" style="text;strokeColor=none;fillColor=none;align=left;verticalAlign=middle;spacingLeft=4;spacingRight=4;overflow=hidden;points=[[0,0.5],[1,0.5]];portConstraint=eastwest;rotatable=0;whiteSpace=wrap;html=1;" parent="4D9p2KJwW67Cen0CYVgP-40" vertex="1">
          <mxGeometry y="30" width="140" height="30" as="geometry" />
        </mxCell>
        <mxCell id="4D9p2KJwW67Cen0CYVgP-42" value="void powerStrike(Character&amp;amp; target)" style="text;strokeColor=none;fillColor=none;align=left;verticalAlign=middle;spacingLeft=4;spacingRight=4;overflow=hidden;points=[[0,0.5],[1,0.5]];portConstraint=eastwest;rotatable=0;whiteSpace=wrap;html=1;" parent="4D9p2KJwW67Cen0CYVgP-40" vertex="1">
          <mxGeometry y="60" width="140" height="50" as="geometry" />
        </mxCell>
        <mxCell id="4D9p2KJwW67Cen0CYVgP-43" value="void rage()" style="text;strokeColor=none;fillColor=none;align=left;verticalAlign=middle;spacingLeft=4;spacingRight=4;overflow=hidden;points=[[0,0.5],[1,0.5]];portConstraint=eastwest;rotatable=0;whiteSpace=wrap;html=1;" parent="4D9p2KJwW67Cen0CYVgP-40" vertex="1">
          <mxGeometry y="110" width="140" height="30" as="geometry" />
        </mxCell>
        <mxCell id="4D9p2KJwW67Cen0CYVgP-136" value="" style="endArrow=none;html=1;rounded=0;exitX=0;exitY=0;exitDx=0;exitDy=0;exitPerimeter=0;" parent="4D9p2KJwW67Cen0CYVgP-40" source="4D9p2KJwW67Cen0CYVgP-42" edge="1">
          <mxGeometry width="50" height="50" relative="1" as="geometry">
            <mxPoint x="100" y="40" as="sourcePoint" />
            <mxPoint x="140" y="60" as="targetPoint" />
          </mxGeometry>
        </mxCell>
        <mxCell id="4D9p2KJwW67Cen0CYVgP-48" value="Rogue" style="swimlane;fontStyle=0;childLayout=stackLayout;horizontal=1;startSize=30;horizontalStack=0;resizeParent=1;resizeParentMax=0;resizeLast=0;collapsible=1;marginBottom=0;whiteSpace=wrap;html=1;" parent="1" vertex="1">
          <mxGeometry x="230" y="490" width="140" height="190" as="geometry" />
        </mxCell>
        <mxCell id="4D9p2KJwW67Cen0CYVgP-49" value="int stealth" style="text;strokeColor=none;fillColor=none;align=left;verticalAlign=middle;spacingLeft=4;spacingRight=4;overflow=hidden;points=[[0,0.5],[1,0.5]];portConstraint=eastwest;rotatable=0;whiteSpace=wrap;html=1;" parent="4D9p2KJwW67Cen0CYVgP-48" vertex="1">
          <mxGeometry y="30" width="140" height="30" as="geometry" />
        </mxCell>
        <mxCell id="4D9p2KJwW67Cen0CYVgP-50" value="int criticalChance" style="text;strokeColor=none;fillColor=none;align=left;verticalAlign=middle;spacingLeft=4;spacingRight=4;overflow=hidden;points=[[0,0.5],[1,0.5]];portConstraint=eastwest;rotatable=0;whiteSpace=wrap;html=1;" parent="4D9p2KJwW67Cen0CYVgP-48" vertex="1">
          <mxGeometry y="60" width="140" height="30" as="geometry" />
        </mxCell>
        <mxCell id="4D9p2KJwW67Cen0CYVgP-51" value="void sneakAttack(Character&amp;amp; target" style="text;strokeColor=none;fillColor=none;align=left;verticalAlign=middle;spacingLeft=4;spacingRight=4;overflow=hidden;points=[[0,0.5],[1,0.5]];portConstraint=eastwest;rotatable=0;whiteSpace=wrap;html=1;" parent="4D9p2KJwW67Cen0CYVgP-48" vertex="1">
          <mxGeometry y="90" width="140" height="50" as="geometry" />
        </mxCell>
        <mxCell id="4D9p2KJwW67Cen0CYVgP-133" value="void dodge()" style="text;strokeColor=none;fillColor=none;align=left;verticalAlign=middle;spacingLeft=4;spacingRight=4;overflow=hidden;points=[[0,0.5],[1,0.5]];portConstraint=eastwest;rotatable=0;whiteSpace=wrap;html=1;" parent="4D9p2KJwW67Cen0CYVgP-48" vertex="1">
          <mxGeometry y="140" width="140" height="50" as="geometry" />
        </mxCell>
        <mxCell id="4D9p2KJwW67Cen0CYVgP-137" value="" style="endArrow=none;html=1;rounded=0;exitX=-0.002;exitY=0.882;exitDx=0;exitDy=0;exitPerimeter=0;" parent="4D9p2KJwW67Cen0CYVgP-48" source="4D9p2KJwW67Cen0CYVgP-50" edge="1">
          <mxGeometry width="50" height="50" relative="1" as="geometry">
            <mxPoint x="260" y="40" as="sourcePoint" />
            <mxPoint x="140" y="87" as="targetPoint" />
          </mxGeometry>
        </mxCell>
        <mxCell id="4D9p2KJwW67Cen0CYVgP-52" value="" style="endArrow=none;html=1;rounded=0;exitX=0.5;exitY=0;exitDx=0;exitDy=0;entryX=0.611;entryY=-0.008;entryDx=0;entryDy=0;entryPerimeter=0;" parent="1" source="4D9p2KJwW67Cen0CYVgP-36" target="4D9p2KJwW67Cen0CYVgP-40" edge="1">
          <mxGeometry width="50" height="50" relative="1" as="geometry">
            <mxPoint x="690" y="420" as="sourcePoint" />
            <mxPoint x="520" y="370" as="targetPoint" />
            <Array as="points">
              <mxPoint x="150" y="440" />
              <mxPoint x="476" y="440" />
            </Array>
          </mxGeometry>
        </mxCell>
        <mxCell id="4D9p2KJwW67Cen0CYVgP-53" value="" style="endArrow=classic;html=1;rounded=0;exitX=0.5;exitY=0;exitDx=0;exitDy=0;" parent="1" source="4D9p2KJwW67Cen0CYVgP-48" edge="1">
          <mxGeometry width="50" height="50" relative="1" as="geometry">
            <mxPoint x="304" y="430" as="sourcePoint" />
            <mxPoint x="301" y="410" as="targetPoint" />
          </mxGeometry>
        </mxCell>
        <mxCell id="4D9p2KJwW67Cen0CYVgP-54" value="Enemy" style="swimlane;fontStyle=0;childLayout=stackLayout;horizontal=1;startSize=30;horizontalStack=0;resizeParent=1;resizeParentMax=0;resizeLast=0;collapsible=1;marginBottom=0;whiteSpace=wrap;html=1;" parent="1" vertex="1">
          <mxGeometry x="440" y="240" width="140" height="120" as="geometry" />
        </mxCell>
        <mxCell id="4D9p2KJwW67Cen0CYVgP-55" value="int reward" style="text;strokeColor=none;fillColor=none;align=left;verticalAlign=middle;spacingLeft=4;spacingRight=4;overflow=hidden;points=[[0,0.5],[1,0.5]];portConstraint=eastwest;rotatable=0;whiteSpace=wrap;html=1;" parent="4D9p2KJwW67Cen0CYVgP-54" vertex="1">
          <mxGeometry y="30" width="140" height="30" as="geometry" />
        </mxCell>
        <mxCell id="4D9p2KJwW67Cen0CYVgP-56" value="void roar()" style="text;strokeColor=none;fillColor=none;align=left;verticalAlign=middle;spacingLeft=4;spacingRight=4;overflow=hidden;points=[[0,0.5],[1,0.5]];portConstraint=eastwest;rotatable=0;whiteSpace=wrap;html=1;" parent="4D9p2KJwW67Cen0CYVgP-54" vertex="1">
          <mxGeometry y="60" width="140" height="30" as="geometry" />
        </mxCell>
        <mxCell id="4D9p2KJwW67Cen0CYVgP-57" value="void flee()" style="text;strokeColor=none;fillColor=none;align=left;verticalAlign=middle;spacingLeft=4;spacingRight=4;overflow=hidden;points=[[0,0.5],[1,0.5]];portConstraint=eastwest;rotatable=0;whiteSpace=wrap;html=1;" parent="4D9p2KJwW67Cen0CYVgP-54" vertex="1">
          <mxGeometry y="90" width="140" height="30" as="geometry" />
        </mxCell>
        <mxCell id="4D9p2KJwW67Cen0CYVgP-138" value="" style="endArrow=none;html=1;rounded=0;entryX=1.003;entryY=0.01;entryDx=0;entryDy=0;entryPerimeter=0;" parent="4D9p2KJwW67Cen0CYVgP-54" target="4D9p2KJwW67Cen0CYVgP-56" edge="1">
          <mxGeometry width="50" height="50" relative="1" as="geometry">
            <mxPoint y="60" as="sourcePoint" />
            <mxPoint x="100" y="240" as="targetPoint" />
          </mxGeometry>
        </mxCell>
        <mxCell id="4D9p2KJwW67Cen0CYVgP-62" style="edgeStyle=orthogonalEdgeStyle;rounded=0;orthogonalLoop=1;jettySize=auto;html=1;exitX=0.75;exitY=0;exitDx=0;exitDy=0;entryX=1;entryY=0.5;entryDx=0;entryDy=0;" parent="1" source="4D9p2KJwW67Cen0CYVgP-58" target="4D9p2KJwW67Cen0CYVgP-57" edge="1">
          <mxGeometry relative="1" as="geometry" />
        </mxCell>
        <mxCell id="4D9p2KJwW67Cen0CYVgP-58" value="Boss" style="swimlane;fontStyle=0;childLayout=stackLayout;horizontal=1;startSize=30;horizontalStack=0;resizeParent=1;resizeParentMax=0;resizeLast=0;collapsible=1;marginBottom=0;whiteSpace=wrap;html=1;" parent="1" vertex="1">
          <mxGeometry x="570" y="430" width="140" height="150" as="geometry" />
        </mxCell>
        <mxCell id="4D9p2KJwW67Cen0CYVgP-59" value="int phase" style="text;strokeColor=none;fillColor=none;align=left;verticalAlign=middle;spacingLeft=4;spacingRight=4;overflow=hidden;points=[[0,0.5],[1,0.5]];portConstraint=eastwest;rotatable=0;whiteSpace=wrap;html=1;" parent="4D9p2KJwW67Cen0CYVgP-58" vertex="1">
          <mxGeometry y="30" width="140" height="30" as="geometry" />
        </mxCell>
        <mxCell id="4D9p2KJwW67Cen0CYVgP-60" value="bool isEnraged" style="text;strokeColor=none;fillColor=none;align=left;verticalAlign=middle;spacingLeft=4;spacingRight=4;overflow=hidden;points=[[0,0.5],[1,0.5]];portConstraint=eastwest;rotatable=0;whiteSpace=wrap;html=1;" parent="4D9p2KJwW67Cen0CYVgP-58" vertex="1">
          <mxGeometry y="60" width="140" height="30" as="geometry" />
        </mxCell>
        <mxCell id="4D9p2KJwW67Cen0CYVgP-61" value="void summonMinions()" style="text;strokeColor=none;fillColor=none;align=left;verticalAlign=middle;spacingLeft=4;spacingRight=4;overflow=hidden;points=[[0,0.5],[1,0.5]];portConstraint=eastwest;rotatable=0;whiteSpace=wrap;html=1;" parent="4D9p2KJwW67Cen0CYVgP-58" vertex="1">
          <mxGeometry y="90" width="140" height="30" as="geometry" />
        </mxCell>
        <mxCell id="4D9p2KJwW67Cen0CYVgP-135" value="void ultimateAbility()" style="text;strokeColor=none;fillColor=none;align=left;verticalAlign=middle;spacingLeft=4;spacingRight=4;overflow=hidden;points=[[0,0.5],[1,0.5]];portConstraint=eastwest;rotatable=0;whiteSpace=wrap;html=1;" parent="4D9p2KJwW67Cen0CYVgP-58" vertex="1">
          <mxGeometry y="120" width="140" height="30" as="geometry" />
        </mxCell>
        <mxCell id="4D9p2KJwW67Cen0CYVgP-139" value="" style="endArrow=none;html=1;rounded=0;exitX=-0.004;exitY=0.038;exitDx=0;exitDy=0;exitPerimeter=0;entryX=1.003;entryY=1.089;entryDx=0;entryDy=0;entryPerimeter=0;" parent="4D9p2KJwW67Cen0CYVgP-58" source="4D9p2KJwW67Cen0CYVgP-61" target="4D9p2KJwW67Cen0CYVgP-60" edge="1">
          <mxGeometry width="50" height="50" relative="1" as="geometry">
            <mxPoint x="-1.5600000000004002" y="93.41999999999985" as="sourcePoint" />
            <mxPoint x="130" y="100" as="targetPoint" />
          </mxGeometry>
        </mxCell>
        <mxCell id="4D9p2KJwW67Cen0CYVgP-63" style="edgeStyle=orthogonalEdgeStyle;rounded=0;orthogonalLoop=1;jettySize=auto;html=1;exitX=0;exitY=0;exitDx=0;exitDy=0;entryX=1;entryY=0.5;entryDx=0;entryDy=0;" parent="1" source="4D9p2KJwW67Cen0CYVgP-54" target="4D9p2KJwW67Cen0CYVgP-121" edge="1">
          <mxGeometry relative="1" as="geometry">
            <mxPoint x="370" y="235" as="targetPoint" />
          </mxGeometry>
        </mxCell>
        <mxCell id="4D9p2KJwW67Cen0CYVgP-64" value="Potion" style="swimlane;fontStyle=0;childLayout=stackLayout;horizontal=1;startSize=30;horizontalStack=0;resizeParent=1;resizeParentMax=0;resizeLast=0;collapsible=1;marginBottom=0;whiteSpace=wrap;html=1;" parent="1" vertex="1">
          <mxGeometry x="1110" y="240" width="140" height="150" as="geometry" />
        </mxCell>
        <mxCell id="4D9p2KJwW67Cen0CYVgP-65" value="int healingPower" style="text;strokeColor=none;fillColor=none;align=left;verticalAlign=middle;spacingLeft=4;spacingRight=4;overflow=hidden;points=[[0,0.5],[1,0.5]];portConstraint=eastwest;rotatable=0;whiteSpace=wrap;html=1;" parent="4D9p2KJwW67Cen0CYVgP-64" vertex="1">
          <mxGeometry y="30" width="140" height="30" as="geometry" />
        </mxCell>
        <mxCell id="4D9p2KJwW67Cen0CYVgP-66" value="int duration" style="text;strokeColor=none;fillColor=none;align=left;verticalAlign=middle;spacingLeft=4;spacingRight=4;overflow=hidden;points=[[0,0.5],[1,0.5]];portConstraint=eastwest;rotatable=0;whiteSpace=wrap;html=1;" parent="4D9p2KJwW67Cen0CYVgP-64" vertex="1">
          <mxGeometry y="60" width="140" height="30" as="geometry" />
        </mxCell>
        <mxCell id="4D9p2KJwW67Cen0CYVgP-67" value="void restoreHealth()" style="text;strokeColor=none;fillColor=none;align=left;verticalAlign=middle;spacingLeft=4;spacingRight=4;overflow=hidden;points=[[0,0.5],[1,0.5]];portConstraint=eastwest;rotatable=0;whiteSpace=wrap;html=1;" parent="4D9p2KJwW67Cen0CYVgP-64" vertex="1">
          <mxGeometry y="90" width="140" height="30" as="geometry" />
        </mxCell>
        <mxCell id="4D9p2KJwW67Cen0CYVgP-154" value="void boostStat()" style="text;strokeColor=none;fillColor=none;align=left;verticalAlign=middle;spacingLeft=4;spacingRight=4;overflow=hidden;points=[[0,0.5],[1,0.5]];portConstraint=eastwest;rotatable=0;whiteSpace=wrap;html=1;" parent="4D9p2KJwW67Cen0CYVgP-64" vertex="1">
          <mxGeometry y="120" width="140" height="30" as="geometry" />
        </mxCell>
        <mxCell id="4D9p2KJwW67Cen0CYVgP-68" value="Armor" style="swimlane;fontStyle=0;childLayout=stackLayout;horizontal=1;startSize=30;horizontalStack=0;resizeParent=1;resizeParentMax=0;resizeLast=0;collapsible=1;marginBottom=0;whiteSpace=wrap;html=1;" parent="1" vertex="1">
          <mxGeometry x="930" y="240" width="140" height="150" as="geometry" />
        </mxCell>
        <mxCell id="4D9p2KJwW67Cen0CYVgP-69" value="int defense" style="text;strokeColor=none;fillColor=none;align=left;verticalAlign=middle;spacingLeft=4;spacingRight=4;overflow=hidden;points=[[0,0.5],[1,0.5]];portConstraint=eastwest;rotatable=0;whiteSpace=wrap;html=1;" parent="4D9p2KJwW67Cen0CYVgP-68" vertex="1">
          <mxGeometry y="30" width="140" height="30" as="geometry" />
        </mxCell>
        <mxCell id="4D9p2KJwW67Cen0CYVgP-70" value="int weight" style="text;strokeColor=none;fillColor=none;align=left;verticalAlign=middle;spacingLeft=4;spacingRight=4;overflow=hidden;points=[[0,0.5],[1,0.5]];portConstraint=eastwest;rotatable=0;whiteSpace=wrap;html=1;" parent="4D9p2KJwW67Cen0CYVgP-68" vertex="1">
          <mxGeometry y="60" width="140" height="30" as="geometry" />
        </mxCell>
        <mxCell id="4D9p2KJwW67Cen0CYVgP-71" value="void reinforce()" style="text;strokeColor=none;fillColor=none;align=left;verticalAlign=middle;spacingLeft=4;spacingRight=4;overflow=hidden;points=[[0,0.5],[1,0.5]];portConstraint=eastwest;rotatable=0;whiteSpace=wrap;html=1;" parent="4D9p2KJwW67Cen0CYVgP-68" vertex="1">
          <mxGeometry y="90" width="140" height="30" as="geometry" />
        </mxCell>
        <mxCell id="4D9p2KJwW67Cen0CYVgP-153" value="void absorbDamage()" style="text;strokeColor=none;fillColor=none;align=left;verticalAlign=middle;spacingLeft=4;spacingRight=4;overflow=hidden;points=[[0,0.5],[1,0.5]];portConstraint=eastwest;rotatable=0;whiteSpace=wrap;html=1;" parent="4D9p2KJwW67Cen0CYVgP-68" vertex="1">
          <mxGeometry y="120" width="140" height="30" as="geometry" />
        </mxCell>
        <mxCell id="4D9p2KJwW67Cen0CYVgP-158" value="" style="endArrow=none;html=1;rounded=0;exitX=0.004;exitY=0.058;exitDx=0;exitDy=0;exitPerimeter=0;entryX=1.007;entryY=0.038;entryDx=0;entryDy=0;entryPerimeter=0;" parent="4D9p2KJwW67Cen0CYVgP-68" source="4D9p2KJwW67Cen0CYVgP-71" target="4D9p2KJwW67Cen0CYVgP-71" edge="1">
          <mxGeometry width="50" height="50" relative="1" as="geometry">
            <mxPoint x="170" y="240" as="sourcePoint" />
            <mxPoint x="140" y="90" as="targetPoint" />
          </mxGeometry>
        </mxCell>
        <mxCell id="4D9p2KJwW67Cen0CYVgP-72" value="Scroll" style="swimlane;fontStyle=0;childLayout=stackLayout;horizontal=1;startSize=30;horizontalStack=0;resizeParent=1;resizeParentMax=0;resizeLast=0;collapsible=1;marginBottom=0;whiteSpace=wrap;html=1;" parent="1" vertex="1">
          <mxGeometry x="1280" y="240" width="140" height="150" as="geometry" />
        </mxCell>
        <mxCell id="4D9p2KJwW67Cen0CYVgP-73" value="std::string effect" style="text;strokeColor=none;fillColor=none;align=left;verticalAlign=middle;spacingLeft=4;spacingRight=4;overflow=hidden;points=[[0,0.5],[1,0.5]];portConstraint=eastwest;rotatable=0;whiteSpace=wrap;html=1;" parent="4D9p2KJwW67Cen0CYVgP-72" vertex="1">
          <mxGeometry y="30" width="140" height="30" as="geometry" />
        </mxCell>
        <mxCell id="4D9p2KJwW67Cen0CYVgP-74" value="int uses" style="text;strokeColor=none;fillColor=none;align=left;verticalAlign=middle;spacingLeft=4;spacingRight=4;overflow=hidden;points=[[0,0.5],[1,0.5]];portConstraint=eastwest;rotatable=0;whiteSpace=wrap;html=1;" parent="4D9p2KJwW67Cen0CYVgP-72" vertex="1">
          <mxGeometry y="60" width="140" height="30" as="geometry" />
        </mxCell>
        <mxCell id="4D9p2KJwW67Cen0CYVgP-75" value="void castEffect()" style="text;strokeColor=none;fillColor=none;align=left;verticalAlign=middle;spacingLeft=4;spacingRight=4;overflow=hidden;points=[[0,0.5],[1,0.5]];portConstraint=eastwest;rotatable=0;whiteSpace=wrap;html=1;" parent="4D9p2KJwW67Cen0CYVgP-72" vertex="1">
          <mxGeometry y="90" width="140" height="30" as="geometry" />
        </mxCell>
        <mxCell id="4D9p2KJwW67Cen0CYVgP-155" value="void revealSecrets()" style="text;strokeColor=none;fillColor=none;align=left;verticalAlign=middle;spacingLeft=4;spacingRight=4;overflow=hidden;points=[[0,0.5],[1,0.5]];portConstraint=eastwest;rotatable=0;whiteSpace=wrap;html=1;" parent="4D9p2KJwW67Cen0CYVgP-72" vertex="1">
          <mxGeometry y="120" width="140" height="30" as="geometry" />
        </mxCell>
        <mxCell id="4D9p2KJwW67Cen0CYVgP-160" value="" style="endArrow=none;html=1;rounded=0;entryX=1;entryY=1;entryDx=0;entryDy=0;entryPerimeter=0;exitX=0;exitY=0;exitDx=0;exitDy=0;exitPerimeter=0;" parent="4D9p2KJwW67Cen0CYVgP-72" source="4D9p2KJwW67Cen0CYVgP-75" target="4D9p2KJwW67Cen0CYVgP-74" edge="1">
          <mxGeometry width="50" height="50" relative="1" as="geometry">
            <mxPoint x="-180" y="240" as="sourcePoint" />
            <mxPoint x="-130" y="190" as="targetPoint" />
          </mxGeometry>
        </mxCell>
        <mxCell id="4D9p2KJwW67Cen0CYVgP-76" value="Weapon" style="swimlane;fontStyle=0;childLayout=stackLayout;horizontal=1;startSize=30;horizontalStack=0;resizeParent=1;resizeParentMax=0;resizeLast=0;collapsible=1;marginBottom=0;whiteSpace=wrap;html=1;direction=east;" parent="1" vertex="1">
          <mxGeometry x="760" y="240" width="140" height="150" as="geometry" />
        </mxCell>
        <mxCell id="4D9p2KJwW67Cen0CYVgP-77" value="int damage" style="text;strokeColor=none;fillColor=none;align=left;verticalAlign=middle;spacingLeft=4;spacingRight=4;overflow=hidden;points=[[0,0.5],[1,0.5]];portConstraint=eastwest;rotatable=0;whiteSpace=wrap;html=1;" parent="4D9p2KJwW67Cen0CYVgP-76" vertex="1">
          <mxGeometry y="30" width="140" height="30" as="geometry" />
        </mxCell>
        <mxCell id="4D9p2KJwW67Cen0CYVgP-78" value="int durability" style="text;strokeColor=none;fillColor=none;align=left;verticalAlign=middle;spacingLeft=4;spacingRight=4;overflow=hidden;points=[[0,0.5],[1,0.5]];portConstraint=eastwest;rotatable=0;whiteSpace=wrap;html=1;" parent="4D9p2KJwW67Cen0CYVgP-76" vertex="1">
          <mxGeometry y="60" width="140" height="30" as="geometry" />
        </mxCell>
        <mxCell id="4D9p2KJwW67Cen0CYVgP-79" value="void upgrade()" style="text;strokeColor=none;fillColor=none;align=left;verticalAlign=middle;spacingLeft=4;spacingRight=4;overflow=hidden;points=[[0,0.5],[1,0.5]];portConstraint=eastwest;rotatable=0;whiteSpace=wrap;html=1;" parent="4D9p2KJwW67Cen0CYVgP-76" vertex="1">
          <mxGeometry y="90" width="140" height="30" as="geometry" />
        </mxCell>
        <mxCell id="4D9p2KJwW67Cen0CYVgP-152" value="void specialEffect()" style="text;strokeColor=none;fillColor=none;align=left;verticalAlign=middle;spacingLeft=4;spacingRight=4;overflow=hidden;points=[[0,0.5],[1,0.5]];portConstraint=eastwest;rotatable=0;whiteSpace=wrap;html=1;" parent="4D9p2KJwW67Cen0CYVgP-76" vertex="1">
          <mxGeometry y="120" width="140" height="30" as="geometry" />
        </mxCell>
        <mxCell id="4D9p2KJwW67Cen0CYVgP-157" value="" style="endArrow=none;html=1;rounded=0;exitX=-0.003;exitY=0.058;exitDx=0;exitDy=0;exitPerimeter=0;entryX=1;entryY=-0.002;entryDx=0;entryDy=0;entryPerimeter=0;" parent="4D9p2KJwW67Cen0CYVgP-76" source="4D9p2KJwW67Cen0CYVgP-79" target="4D9p2KJwW67Cen0CYVgP-79" edge="1">
          <mxGeometry width="50" height="50" relative="1" as="geometry">
            <mxPoint x="340" y="240" as="sourcePoint" />
            <mxPoint x="390" y="190" as="targetPoint" />
          </mxGeometry>
        </mxCell>
        <mxCell id="4D9p2KJwW67Cen0CYVgP-84" value="" style="endArrow=none;html=1;rounded=0;entryX=0.5;entryY=0;entryDx=0;entryDy=0;" parent="1" target="4D9p2KJwW67Cen0CYVgP-76" edge="1">
          <mxGeometry width="50" height="50" relative="1" as="geometry">
            <mxPoint x="830" y="200" as="sourcePoint" />
            <mxPoint x="1300" y="310" as="targetPoint" />
            <Array as="points" />
          </mxGeometry>
        </mxCell>
        <mxCell id="4D9p2KJwW67Cen0CYVgP-85" value="" style="edgeStyle=orthogonalEdgeStyle;rounded=0;orthogonalLoop=1;jettySize=auto;html=1;" parent="1" edge="1">
          <mxGeometry relative="1" as="geometry">
            <mxPoint x="1090" y="200" as="sourcePoint" />
            <mxPoint x="1090" as="targetPoint" />
          </mxGeometry>
        </mxCell>
        <mxCell id="4D9p2KJwW67Cen0CYVgP-86" value="" style="endArrow=none;html=1;rounded=0;" parent="1" edge="1">
          <mxGeometry width="50" height="50" relative="1" as="geometry">
            <mxPoint x="830" y="200" as="sourcePoint" />
            <mxPoint x="1350" y="200" as="targetPoint" />
          </mxGeometry>
        </mxCell>
        <mxCell id="4D9p2KJwW67Cen0CYVgP-87" value="" style="endArrow=none;html=1;rounded=0;exitX=0.5;exitY=0;exitDx=0;exitDy=0;" parent="1" source="4D9p2KJwW67Cen0CYVgP-72" edge="1">
          <mxGeometry width="50" height="50" relative="1" as="geometry">
            <mxPoint x="1260" y="350" as="sourcePoint" />
            <mxPoint x="1350" y="200" as="targetPoint" />
          </mxGeometry>
        </mxCell>
        <mxCell id="4D9p2KJwW67Cen0CYVgP-88" value="" style="endArrow=none;html=1;rounded=0;exitX=0.5;exitY=0;exitDx=0;exitDy=0;" parent="1" source="4D9p2KJwW67Cen0CYVgP-68" edge="1">
          <mxGeometry width="50" height="50" relative="1" as="geometry">
            <mxPoint x="1260" y="350" as="sourcePoint" />
            <mxPoint x="1000" y="200" as="targetPoint" />
          </mxGeometry>
        </mxCell>
        <mxCell id="4D9p2KJwW67Cen0CYVgP-89" value="" style="endArrow=none;html=1;rounded=0;" parent="1" edge="1">
          <mxGeometry width="50" height="50" relative="1" as="geometry">
            <mxPoint x="1170" y="240" as="sourcePoint" />
            <mxPoint x="1170" y="200" as="targetPoint" />
          </mxGeometry>
        </mxCell>
        <mxCell id="4D9p2KJwW67Cen0CYVgP-91" value="Skills" style="swimlane;fontStyle=0;childLayout=stackLayout;horizontal=1;startSize=30;horizontalStack=0;resizeParent=1;resizeParentMax=0;resizeLast=0;collapsible=1;marginBottom=0;whiteSpace=wrap;html=1;" parent="1" vertex="1">
          <mxGeometry x="1020" y="455" width="140" height="210" as="geometry" />
        </mxCell>
        <mxCell id="4D9p2KJwW67Cen0CYVgP-92" value="std::string name" style="text;strokeColor=none;fillColor=none;align=left;verticalAlign=middle;spacingLeft=4;spacingRight=4;overflow=hidden;points=[[0,0.5],[1,0.5]];portConstraint=eastwest;rotatable=0;whiteSpace=wrap;html=1;" parent="4D9p2KJwW67Cen0CYVgP-91" vertex="1">
          <mxGeometry y="30" width="140" height="30" as="geometry" />
        </mxCell>
        <mxCell id="4D9p2KJwW67Cen0CYVgP-93" value="std::string description" style="text;strokeColor=none;fillColor=none;align=left;verticalAlign=middle;spacingLeft=4;spacingRight=4;overflow=hidden;points=[[0,0.5],[1,0.5]];portConstraint=eastwest;rotatable=0;whiteSpace=wrap;html=1;" parent="4D9p2KJwW67Cen0CYVgP-91" vertex="1">
          <mxGeometry y="60" width="140" height="30" as="geometry" />
        </mxCell>
        <mxCell id="4D9p2KJwW67Cen0CYVgP-94" value="int cooldown" style="text;strokeColor=none;fillColor=none;align=left;verticalAlign=middle;spacingLeft=4;spacingRight=4;overflow=hidden;points=[[0,0.5],[1,0.5]];portConstraint=eastwest;rotatable=0;whiteSpace=wrap;html=1;" parent="4D9p2KJwW67Cen0CYVgP-91" vertex="1">
          <mxGeometry y="90" width="140" height="30" as="geometry" />
        </mxCell>
        <mxCell id="4D9p2KJwW67Cen0CYVgP-166" value="bool isActive" style="text;strokeColor=none;fillColor=none;align=left;verticalAlign=middle;spacingLeft=4;spacingRight=4;overflow=hidden;points=[[0,0.5],[1,0.5]];portConstraint=eastwest;rotatable=0;whiteSpace=wrap;html=1;" parent="4D9p2KJwW67Cen0CYVgP-91" vertex="1">
          <mxGeometry y="120" width="140" height="30" as="geometry" />
        </mxCell>
        <mxCell id="4D9p2KJwW67Cen0CYVgP-167" value="void activate()" style="text;strokeColor=none;fillColor=none;align=left;verticalAlign=middle;spacingLeft=4;spacingRight=4;overflow=hidden;points=[[0,0.5],[1,0.5]];portConstraint=eastwest;rotatable=0;whiteSpace=wrap;html=1;" parent="4D9p2KJwW67Cen0CYVgP-91" vertex="1">
          <mxGeometry y="150" width="140" height="30" as="geometry" />
        </mxCell>
        <mxCell id="4D9p2KJwW67Cen0CYVgP-168" value="void inspect()" style="text;strokeColor=none;fillColor=none;align=left;verticalAlign=middle;spacingLeft=4;spacingRight=4;overflow=hidden;points=[[0,0.5],[1,0.5]];portConstraint=eastwest;rotatable=0;whiteSpace=wrap;html=1;" parent="4D9p2KJwW67Cen0CYVgP-91" vertex="1">
          <mxGeometry y="180" width="140" height="30" as="geometry" />
        </mxCell>
        <mxCell id="4D9p2KJwW67Cen0CYVgP-198" value="" style="endArrow=none;html=1;rounded=0;exitX=0.001;exitY=-0.125;exitDx=0;exitDy=0;exitPerimeter=0;entryX=0.996;entryY=0.815;entryDx=0;entryDy=0;entryPerimeter=0;" parent="4D9p2KJwW67Cen0CYVgP-91" source="4D9p2KJwW67Cen0CYVgP-167" target="4D9p2KJwW67Cen0CYVgP-166" edge="1">
          <mxGeometry width="50" height="50" relative="1" as="geometry">
            <mxPoint x="80" y="65" as="sourcePoint" />
            <mxPoint x="140" y="149" as="targetPoint" />
          </mxGeometry>
        </mxCell>
        <mxCell id="4D9p2KJwW67Cen0CYVgP-95" value="StealthSkill" style="swimlane;fontStyle=0;childLayout=stackLayout;horizontal=1;startSize=30;horizontalStack=0;resizeParent=1;resizeParentMax=0;resizeLast=0;collapsible=1;marginBottom=0;whiteSpace=wrap;html=1;" parent="1" vertex="1">
          <mxGeometry x="1280" y="720" width="140" height="150" as="geometry" />
        </mxCell>
        <mxCell id="4D9p2KJwW67Cen0CYVgP-96" value="int stealthLevel" style="text;strokeColor=none;fillColor=none;align=left;verticalAlign=middle;spacingLeft=4;spacingRight=4;overflow=hidden;points=[[0,0.5],[1,0.5]];portConstraint=eastwest;rotatable=0;whiteSpace=wrap;html=1;" parent="4D9p2KJwW67Cen0CYVgP-95" vertex="1">
          <mxGeometry y="30" width="140" height="30" as="geometry" />
        </mxCell>
        <mxCell id="4D9p2KJwW67Cen0CYVgP-97" value="int detectionRange" style="text;strokeColor=none;fillColor=none;align=left;verticalAlign=middle;spacingLeft=4;spacingRight=4;overflow=hidden;points=[[0,0.5],[1,0.5]];portConstraint=eastwest;rotatable=0;whiteSpace=wrap;html=1;" parent="4D9p2KJwW67Cen0CYVgP-95" vertex="1">
          <mxGeometry y="60" width="140" height="30" as="geometry" />
        </mxCell>
        <mxCell id="4D9p2KJwW67Cen0CYVgP-98" value="void vanish()" style="text;strokeColor=none;fillColor=none;align=left;verticalAlign=middle;spacingLeft=4;spacingRight=4;overflow=hidden;points=[[0,0.5],[1,0.5]];portConstraint=eastwest;rotatable=0;whiteSpace=wrap;html=1;" parent="4D9p2KJwW67Cen0CYVgP-95" vertex="1">
          <mxGeometry y="90" width="140" height="30" as="geometry" />
        </mxCell>
        <mxCell id="4D9p2KJwW67Cen0CYVgP-164" value="void trapDetection()" style="text;strokeColor=none;fillColor=none;align=left;verticalAlign=middle;spacingLeft=4;spacingRight=4;overflow=hidden;points=[[0,0.5],[1,0.5]];portConstraint=eastwest;rotatable=0;whiteSpace=wrap;html=1;" parent="4D9p2KJwW67Cen0CYVgP-95" vertex="1">
          <mxGeometry y="120" width="140" height="30" as="geometry" />
        </mxCell>
        <mxCell id="4D9p2KJwW67Cen0CYVgP-203" value="" style="endArrow=none;html=1;rounded=0;exitX=0.002;exitY=-0.01;exitDx=0;exitDy=0;exitPerimeter=0;entryX=1.009;entryY=1.01;entryDx=0;entryDy=0;entryPerimeter=0;" parent="4D9p2KJwW67Cen0CYVgP-95" source="4D9p2KJwW67Cen0CYVgP-98" target="4D9p2KJwW67Cen0CYVgP-97" edge="1">
          <mxGeometry width="50" height="50" relative="1" as="geometry">
            <mxPoint x="-180" y="30" as="sourcePoint" />
            <mxPoint x="-130" y="-20" as="targetPoint" />
          </mxGeometry>
        </mxCell>
        <mxCell id="4D9p2KJwW67Cen0CYVgP-99" value="MagicSkill" style="swimlane;fontStyle=0;childLayout=stackLayout;horizontal=1;startSize=30;horizontalStack=0;resizeParent=1;resizeParentMax=0;resizeLast=0;collapsible=1;marginBottom=0;whiteSpace=wrap;html=1;" parent="1" vertex="1">
          <mxGeometry x="1110" y="720" width="140" height="150" as="geometry" />
        </mxCell>
        <mxCell id="4D9p2KJwW67Cen0CYVgP-100" value="int manaCost" style="text;strokeColor=none;fillColor=none;align=left;verticalAlign=middle;spacingLeft=4;spacingRight=4;overflow=hidden;points=[[0,0.5],[1,0.5]];portConstraint=eastwest;rotatable=0;whiteSpace=wrap;html=1;" parent="4D9p2KJwW67Cen0CYVgP-99" vertex="1">
          <mxGeometry y="30" width="140" height="30" as="geometry" />
        </mxCell>
        <mxCell id="4D9p2KJwW67Cen0CYVgP-101" value="int areaOfEffect" style="text;strokeColor=none;fillColor=none;align=left;verticalAlign=middle;spacingLeft=4;spacingRight=4;overflow=hidden;points=[[0,0.5],[1,0.5]];portConstraint=eastwest;rotatable=0;whiteSpace=wrap;html=1;" parent="4D9p2KJwW67Cen0CYVgP-99" vertex="1">
          <mxGeometry y="60" width="140" height="30" as="geometry" />
        </mxCell>
        <mxCell id="4D9p2KJwW67Cen0CYVgP-102" value="void aoeDamage()" style="text;strokeColor=none;fillColor=none;align=left;verticalAlign=middle;spacingLeft=4;spacingRight=4;overflow=hidden;points=[[0,0.5],[1,0.5]];portConstraint=eastwest;rotatable=0;whiteSpace=wrap;html=1;" parent="4D9p2KJwW67Cen0CYVgP-99" vertex="1">
          <mxGeometry y="90" width="140" height="30" as="geometry" />
        </mxCell>
        <mxCell id="4D9p2KJwW67Cen0CYVgP-163" value="void debuff()" style="text;strokeColor=none;fillColor=none;align=left;verticalAlign=middle;spacingLeft=4;spacingRight=4;overflow=hidden;points=[[0,0.5],[1,0.5]];portConstraint=eastwest;rotatable=0;whiteSpace=wrap;html=1;" parent="4D9p2KJwW67Cen0CYVgP-99" vertex="1">
          <mxGeometry y="120" width="140" height="30" as="geometry" />
        </mxCell>
        <mxCell id="4D9p2KJwW67Cen0CYVgP-202" value="" style="endArrow=none;html=1;rounded=0;exitX=0.003;exitY=-0.01;exitDx=0;exitDy=0;exitPerimeter=0;entryX=0.998;entryY=0.03;entryDx=0;entryDy=0;entryPerimeter=0;" parent="4D9p2KJwW67Cen0CYVgP-99" source="4D9p2KJwW67Cen0CYVgP-102" target="4D9p2KJwW67Cen0CYVgP-102" edge="1">
          <mxGeometry width="50" height="50" relative="1" as="geometry">
            <mxPoint x="-10" y="30" as="sourcePoint" />
            <mxPoint x="40" y="-20" as="targetPoint" />
          </mxGeometry>
        </mxCell>
        <mxCell id="4D9p2KJwW67Cen0CYVgP-103" value="DefenceSkill" style="swimlane;fontStyle=0;childLayout=stackLayout;horizontal=1;startSize=30;horizontalStack=0;resizeParent=1;resizeParentMax=0;resizeLast=0;collapsible=1;marginBottom=0;whiteSpace=wrap;html=1;" parent="1" vertex="1">
          <mxGeometry x="930" y="720" width="140" height="150" as="geometry" />
        </mxCell>
        <mxCell id="4D9p2KJwW67Cen0CYVgP-104" value="int defenceBoost" style="text;strokeColor=none;fillColor=none;align=left;verticalAlign=middle;spacingLeft=4;spacingRight=4;overflow=hidden;points=[[0,0.5],[1,0.5]];portConstraint=eastwest;rotatable=0;whiteSpace=wrap;html=1;" parent="4D9p2KJwW67Cen0CYVgP-103" vertex="1">
          <mxGeometry y="30" width="140" height="30" as="geometry" />
        </mxCell>
        <mxCell id="4D9p2KJwW67Cen0CYVgP-105" value="int duration" style="text;strokeColor=none;fillColor=none;align=left;verticalAlign=middle;spacingLeft=4;spacingRight=4;overflow=hidden;points=[[0,0.5],[1,0.5]];portConstraint=eastwest;rotatable=0;whiteSpace=wrap;html=1;" parent="4D9p2KJwW67Cen0CYVgP-103" vertex="1">
          <mxGeometry y="60" width="140" height="30" as="geometry" />
        </mxCell>
        <mxCell id="4D9p2KJwW67Cen0CYVgP-106" value="void shieldBlock()" style="text;strokeColor=none;fillColor=none;align=left;verticalAlign=middle;spacingLeft=4;spacingRight=4;overflow=hidden;points=[[0,0.5],[1,0.5]];portConstraint=eastwest;rotatable=0;whiteSpace=wrap;html=1;" parent="4D9p2KJwW67Cen0CYVgP-103" vertex="1">
          <mxGeometry y="90" width="140" height="30" as="geometry" />
        </mxCell>
        <mxCell id="4D9p2KJwW67Cen0CYVgP-162" value="void taunt()" style="text;strokeColor=none;fillColor=none;align=left;verticalAlign=middle;spacingLeft=4;spacingRight=4;overflow=hidden;points=[[0,0.5],[1,0.5]];portConstraint=eastwest;rotatable=0;whiteSpace=wrap;html=1;" parent="4D9p2KJwW67Cen0CYVgP-103" vertex="1">
          <mxGeometry y="120" width="140" height="30" as="geometry" />
        </mxCell>
        <mxCell id="4D9p2KJwW67Cen0CYVgP-201" value="" style="endArrow=none;html=1;rounded=0;exitX=0.004;exitY=-0.03;exitDx=0;exitDy=0;exitPerimeter=0;entryX=1.007;entryY=0.95;entryDx=0;entryDy=0;entryPerimeter=0;" parent="4D9p2KJwW67Cen0CYVgP-103" source="4D9p2KJwW67Cen0CYVgP-106" target="4D9p2KJwW67Cen0CYVgP-105" edge="1">
          <mxGeometry width="50" height="50" relative="1" as="geometry">
            <mxPoint x="170" y="30" as="sourcePoint" />
            <mxPoint x="220" y="-20" as="targetPoint" />
          </mxGeometry>
        </mxCell>
        <mxCell id="4D9p2KJwW67Cen0CYVgP-107" value="AttackSkill" style="swimlane;fontStyle=0;childLayout=stackLayout;horizontal=1;startSize=30;horizontalStack=0;resizeParent=1;resizeParentMax=0;resizeLast=0;collapsible=1;marginBottom=0;whiteSpace=wrap;html=1;" parent="1" vertex="1">
          <mxGeometry x="760" y="720" width="140" height="150" as="geometry" />
        </mxCell>
        <mxCell id="4D9p2KJwW67Cen0CYVgP-108" value="int damageMultiplier" style="text;strokeColor=none;fillColor=none;align=left;verticalAlign=middle;spacingLeft=4;spacingRight=4;overflow=hidden;points=[[0,0.5],[1,0.5]];portConstraint=eastwest;rotatable=0;whiteSpace=wrap;html=1;" parent="4D9p2KJwW67Cen0CYVgP-107" vertex="1">
          <mxGeometry y="30" width="140" height="30" as="geometry" />
        </mxCell>
        <mxCell id="4D9p2KJwW67Cen0CYVgP-109" value="int coolDown" style="text;strokeColor=none;fillColor=none;align=left;verticalAlign=middle;spacingLeft=4;spacingRight=4;overflow=hidden;points=[[0,0.5],[1,0.5]];portConstraint=eastwest;rotatable=0;whiteSpace=wrap;html=1;" parent="4D9p2KJwW67Cen0CYVgP-107" vertex="1">
          <mxGeometry y="60" width="140" height="30" as="geometry" />
        </mxCell>
        <mxCell id="4D9p2KJwW67Cen0CYVgP-110" value="void criticalHit()" style="text;strokeColor=none;fillColor=none;align=left;verticalAlign=middle;spacingLeft=4;spacingRight=4;overflow=hidden;points=[[0,0.5],[1,0.5]];portConstraint=eastwest;rotatable=0;whiteSpace=wrap;html=1;" parent="4D9p2KJwW67Cen0CYVgP-107" vertex="1">
          <mxGeometry y="90" width="140" height="30" as="geometry" />
        </mxCell>
        <mxCell id="4D9p2KJwW67Cen0CYVgP-161" value="void comboAttack()" style="text;strokeColor=none;fillColor=none;align=left;verticalAlign=middle;spacingLeft=4;spacingRight=4;overflow=hidden;points=[[0,0.5],[1,0.5]];portConstraint=eastwest;rotatable=0;whiteSpace=wrap;html=1;" parent="4D9p2KJwW67Cen0CYVgP-107" vertex="1">
          <mxGeometry y="120" width="140" height="30" as="geometry" />
        </mxCell>
        <mxCell id="4D9p2KJwW67Cen0CYVgP-200" value="" style="endArrow=none;html=1;rounded=0;exitX=0.001;exitY=-0.09;exitDx=0;exitDy=0;exitPerimeter=0;" parent="4D9p2KJwW67Cen0CYVgP-107" source="4D9p2KJwW67Cen0CYVgP-110" edge="1">
          <mxGeometry width="50" height="50" relative="1" as="geometry">
            <mxPoint x="340" y="30" as="sourcePoint" />
            <mxPoint x="140" y="87" as="targetPoint" />
          </mxGeometry>
        </mxCell>
        <mxCell id="4D9p2KJwW67Cen0CYVgP-111" value="" style="endArrow=none;html=1;rounded=0;exitX=0.5;exitY=0;exitDx=0;exitDy=0;" parent="1" source="4D9p2KJwW67Cen0CYVgP-107" edge="1">
          <mxGeometry width="50" height="50" relative="1" as="geometry">
            <mxPoint x="1060" y="580" as="sourcePoint" />
            <mxPoint x="830" y="700" as="targetPoint" />
          </mxGeometry>
        </mxCell>
        <mxCell id="4D9p2KJwW67Cen0CYVgP-112" value="" style="endArrow=none;html=1;rounded=0;exitX=0.5;exitY=0;exitDx=0;exitDy=0;" parent="1" source="4D9p2KJwW67Cen0CYVgP-103" edge="1">
          <mxGeometry width="50" height="50" relative="1" as="geometry">
            <mxPoint x="1060" y="580" as="sourcePoint" />
            <mxPoint x="1000" y="700" as="targetPoint" />
          </mxGeometry>
        </mxCell>
        <mxCell id="4D9p2KJwW67Cen0CYVgP-113" value="" style="endArrow=none;html=1;rounded=0;exitX=0.5;exitY=0;exitDx=0;exitDy=0;" parent="1" source="4D9p2KJwW67Cen0CYVgP-99" edge="1">
          <mxGeometry width="50" height="50" relative="1" as="geometry">
            <mxPoint x="1060" y="580" as="sourcePoint" />
            <mxPoint x="1180" y="700" as="targetPoint" />
          </mxGeometry>
        </mxCell>
        <mxCell id="4D9p2KJwW67Cen0CYVgP-114" value="" style="endArrow=none;html=1;rounded=0;exitX=0.5;exitY=0;exitDx=0;exitDy=0;" parent="1" source="4D9p2KJwW67Cen0CYVgP-95" edge="1">
          <mxGeometry width="50" height="50" relative="1" as="geometry">
            <mxPoint x="1060" y="580" as="sourcePoint" />
            <mxPoint x="1350" y="700" as="targetPoint" />
          </mxGeometry>
        </mxCell>
        <mxCell id="4D9p2KJwW67Cen0CYVgP-115" value="" style="endArrow=none;html=1;rounded=0;" parent="1" edge="1">
          <mxGeometry width="50" height="50" relative="1" as="geometry">
            <mxPoint x="830" y="700" as="sourcePoint" />
            <mxPoint x="1350" y="700" as="targetPoint" />
          </mxGeometry>
        </mxCell>
        <mxCell id="4D9p2KJwW67Cen0CYVgP-159" value="" style="endArrow=none;html=1;rounded=0;exitX=-0.001;exitY=0.038;exitDx=0;exitDy=0;exitPerimeter=0;" parent="1" source="4D9p2KJwW67Cen0CYVgP-67" edge="1">
          <mxGeometry width="50" height="50" relative="1" as="geometry">
            <mxPoint x="1100" y="480" as="sourcePoint" />
            <mxPoint x="1250" y="330" as="targetPoint" />
          </mxGeometry>
        </mxCell>
        <mxCell id="4D9p2KJwW67Cen0CYVgP-170" value="" style="endArrow=classic;html=1;rounded=0;entryX=0.45;entryY=0.922;entryDx=0;entryDy=0;entryPerimeter=0;" parent="1" target="4D9p2KJwW67Cen0CYVgP-168" edge="1">
          <mxGeometry width="50" height="50" relative="1" as="geometry">
            <mxPoint x="1083" y="700" as="sourcePoint" />
            <mxPoint x="1150" y="570" as="targetPoint" />
          </mxGeometry>
        </mxCell>
        <mxCell id="4D9p2KJwW67Cen0CYVgP-171" value="Dungeon" style="swimlane;fontStyle=0;childLayout=stackLayout;horizontal=1;startSize=30;horizontalStack=0;resizeParent=1;resizeParentMax=0;resizeLast=0;collapsible=1;marginBottom=0;whiteSpace=wrap;html=1;" parent="1" vertex="1">
          <mxGeometry x="1020" y="960" width="140" height="150" as="geometry" />
        </mxCell>
        <mxCell id="4D9p2KJwW67Cen0CYVgP-172" value="int level" style="text;strokeColor=none;fillColor=none;align=left;verticalAlign=middle;spacingLeft=4;spacingRight=4;overflow=hidden;points=[[0,0.5],[1,0.5]];portConstraint=eastwest;rotatable=0;whiteSpace=wrap;html=1;" parent="4D9p2KJwW67Cen0CYVgP-171" vertex="1">
          <mxGeometry y="30" width="140" height="30" as="geometry" />
        </mxCell>
        <mxCell id="4D9p2KJwW67Cen0CYVgP-173" value="std::vector&amp;lt;Room&amp;gt; rooms" style="text;strokeColor=none;fillColor=none;align=left;verticalAlign=middle;spacingLeft=4;spacingRight=4;overflow=hidden;points=[[0,0.5],[1,0.5]];portConstraint=eastwest;rotatable=0;whiteSpace=wrap;html=1;" parent="4D9p2KJwW67Cen0CYVgP-171" vertex="1">
          <mxGeometry y="60" width="140" height="30" as="geometry" />
        </mxCell>
        <mxCell id="4D9p2KJwW67Cen0CYVgP-174" value="void generateLevel()" style="text;strokeColor=none;fillColor=none;align=left;verticalAlign=middle;spacingLeft=4;spacingRight=4;overflow=hidden;points=[[0,0.5],[1,0.5]];portConstraint=eastwest;rotatable=0;whiteSpace=wrap;html=1;" parent="4D9p2KJwW67Cen0CYVgP-171" vertex="1">
          <mxGeometry y="90" width="140" height="30" as="geometry" />
        </mxCell>
        <mxCell id="4D9p2KJwW67Cen0CYVgP-175" value="void spawnBoss()" style="text;strokeColor=none;fillColor=none;align=left;verticalAlign=middle;spacingLeft=4;spacingRight=4;overflow=hidden;points=[[0,0.5],[1,0.5]];portConstraint=eastwest;rotatable=0;whiteSpace=wrap;html=1;" parent="4D9p2KJwW67Cen0CYVgP-171" vertex="1">
          <mxGeometry y="120" width="140" height="30" as="geometry" />
        </mxCell>
        <mxCell id="4D9p2KJwW67Cen0CYVgP-206" value="" style="endArrow=none;html=1;rounded=0;exitX=0;exitY=0.051;exitDx=0;exitDy=0;exitPerimeter=0;entryX=1;entryY=0.051;entryDx=0;entryDy=0;entryPerimeter=0;" parent="4D9p2KJwW67Cen0CYVgP-171" source="4D9p2KJwW67Cen0CYVgP-174" target="4D9p2KJwW67Cen0CYVgP-174" edge="1">
          <mxGeometry width="50" height="50" relative="1" as="geometry">
            <mxPoint x="80" y="160" as="sourcePoint" />
            <mxPoint x="130" y="110" as="targetPoint" />
          </mxGeometry>
        </mxCell>
        <mxCell id="4D9p2KJwW67Cen0CYVgP-176" value="Room" style="swimlane;fontStyle=0;childLayout=stackLayout;horizontal=1;startSize=30;horizontalStack=0;resizeParent=1;resizeParentMax=0;resizeLast=0;collapsible=1;marginBottom=0;whiteSpace=wrap;html=1;" parent="1" vertex="1">
          <mxGeometry x="1020" y="1160" width="140" height="150" as="geometry" />
        </mxCell>
        <mxCell id="4D9p2KJwW67Cen0CYVgP-177" value="bool hasEnemy" style="text;strokeColor=none;fillColor=none;align=left;verticalAlign=middle;spacingLeft=4;spacingRight=4;overflow=hidden;points=[[0,0.5],[1,0.5]];portConstraint=eastwest;rotatable=0;whiteSpace=wrap;html=1;" parent="4D9p2KJwW67Cen0CYVgP-176" vertex="1">
          <mxGeometry y="30" width="140" height="30" as="geometry" />
        </mxCell>
        <mxCell id="2SOZR0MVJdqEYpCiSv7c-22" style="edgeStyle=orthogonalEdgeStyle;rounded=0;orthogonalLoop=1;jettySize=auto;html=1;exitX=0;exitY=0.5;exitDx=0;exitDy=0;" edge="1" parent="4D9p2KJwW67Cen0CYVgP-176" source="4D9p2KJwW67Cen0CYVgP-178">
          <mxGeometry relative="1" as="geometry">
            <mxPoint x="-470" y="-800" as="targetPoint" />
          </mxGeometry>
        </mxCell>
        <mxCell id="2SOZR0MVJdqEYpCiSv7c-24" value="В комнатах есть Enemies" style="edgeLabel;html=1;align=center;verticalAlign=middle;resizable=0;points=[];" vertex="1" connectable="0" parent="2SOZR0MVJdqEYpCiSv7c-22">
          <mxGeometry x="-0.5784" y="-1" relative="1" as="geometry">
            <mxPoint as="offset" />
          </mxGeometry>
        </mxCell>
        <mxCell id="4D9p2KJwW67Cen0CYVgP-178" value="bool hasTreasure" style="text;strokeColor=none;fillColor=none;align=left;verticalAlign=middle;spacingLeft=4;spacingRight=4;overflow=hidden;points=[[0,0.5],[1,0.5]];portConstraint=eastwest;rotatable=0;whiteSpace=wrap;html=1;" parent="4D9p2KJwW67Cen0CYVgP-176" vertex="1">
          <mxGeometry y="60" width="140" height="30" as="geometry" />
        </mxCell>
        <mxCell id="4D9p2KJwW67Cen0CYVgP-179" value="void addEnemyl()" style="text;strokeColor=none;fillColor=none;align=left;verticalAlign=middle;spacingLeft=4;spacingRight=4;overflow=hidden;points=[[0,0.5],[1,0.5]];portConstraint=eastwest;rotatable=0;whiteSpace=wrap;html=1;" parent="4D9p2KJwW67Cen0CYVgP-176" vertex="1">
          <mxGeometry y="90" width="140" height="30" as="geometry" />
        </mxCell>
        <mxCell id="4D9p2KJwW67Cen0CYVgP-180" value="void addTreasure()" style="text;strokeColor=none;fillColor=none;align=left;verticalAlign=middle;spacingLeft=4;spacingRight=4;overflow=hidden;points=[[0,0.5],[1,0.5]];portConstraint=eastwest;rotatable=0;whiteSpace=wrap;html=1;" parent="4D9p2KJwW67Cen0CYVgP-176" vertex="1">
          <mxGeometry y="120" width="140" height="30" as="geometry" />
        </mxCell>
        <mxCell id="4D9p2KJwW67Cen0CYVgP-209" value="" style="endArrow=none;html=1;rounded=0;exitX=-0.003;exitY=-0.015;exitDx=0;exitDy=0;exitPerimeter=0;entryX=1;entryY=0.965;entryDx=0;entryDy=0;entryPerimeter=0;" parent="4D9p2KJwW67Cen0CYVgP-176" source="4D9p2KJwW67Cen0CYVgP-179" target="4D9p2KJwW67Cen0CYVgP-178" edge="1">
          <mxGeometry width="50" height="50" relative="1" as="geometry">
            <mxPoint x="80" y="-50" as="sourcePoint" />
            <mxPoint x="130" y="-100" as="targetPoint" />
          </mxGeometry>
        </mxCell>
        <mxCell id="4D9p2KJwW67Cen0CYVgP-182" style="edgeStyle=orthogonalEdgeStyle;rounded=0;orthogonalLoop=1;jettySize=auto;html=1;exitX=0.5;exitY=0;exitDx=0;exitDy=0;entryX=0.501;entryY=0.997;entryDx=0;entryDy=0;entryPerimeter=0;" parent="1" source="4D9p2KJwW67Cen0CYVgP-176" target="4D9p2KJwW67Cen0CYVgP-175" edge="1">
          <mxGeometry relative="1" as="geometry" />
        </mxCell>
        <mxCell id="4D9p2KJwW67Cen0CYVgP-188" value="Inventory" style="swimlane;fontStyle=0;childLayout=stackLayout;horizontal=1;startSize=30;horizontalStack=0;resizeParent=1;resizeParentMax=0;resizeLast=0;collapsible=1;marginBottom=0;whiteSpace=wrap;html=1;" parent="1" vertex="1">
          <mxGeometry x="730" y="-230" width="140" height="150" as="geometry" />
        </mxCell>
        <mxCell id="4D9p2KJwW67Cen0CYVgP-189" value="std::vector&amp;lt;Item&amp;gt; items" style="text;strokeColor=none;fillColor=none;align=left;verticalAlign=middle;spacingLeft=4;spacingRight=4;overflow=hidden;points=[[0,0.5],[1,0.5]];portConstraint=eastwest;rotatable=0;whiteSpace=wrap;html=1;" parent="4D9p2KJwW67Cen0CYVgP-188" vertex="1">
          <mxGeometry y="30" width="140" height="30" as="geometry" />
        </mxCell>
        <mxCell id="4D9p2KJwW67Cen0CYVgP-190" value="int capacity" style="text;strokeColor=none;fillColor=none;align=left;verticalAlign=middle;spacingLeft=4;spacingRight=4;overflow=hidden;points=[[0,0.5],[1,0.5]];portConstraint=eastwest;rotatable=0;whiteSpace=wrap;html=1;" parent="4D9p2KJwW67Cen0CYVgP-188" vertex="1">
          <mxGeometry y="60" width="140" height="30" as="geometry" />
        </mxCell>
        <mxCell id="4D9p2KJwW67Cen0CYVgP-191" value="void addItem(Item item)" style="text;strokeColor=none;fillColor=none;align=left;verticalAlign=middle;spacingLeft=4;spacingRight=4;overflow=hidden;points=[[0,0.5],[1,0.5]];portConstraint=eastwest;rotatable=0;whiteSpace=wrap;html=1;" parent="4D9p2KJwW67Cen0CYVgP-188" vertex="1">
          <mxGeometry y="90" width="140" height="30" as="geometry" />
        </mxCell>
        <mxCell id="4D9p2KJwW67Cen0CYVgP-192" value="void removeItem(Item item)" style="text;strokeColor=none;fillColor=none;align=left;verticalAlign=middle;spacingLeft=4;spacingRight=4;overflow=hidden;points=[[0,0.5],[1,0.5]];portConstraint=eastwest;rotatable=0;whiteSpace=wrap;html=1;" parent="4D9p2KJwW67Cen0CYVgP-188" vertex="1">
          <mxGeometry y="120" width="140" height="30" as="geometry" />
        </mxCell>
        <mxCell id="4D9p2KJwW67Cen0CYVgP-208" value="" style="endArrow=none;html=1;rounded=0;entryX=1.008;entryY=1.011;entryDx=0;entryDy=0;entryPerimeter=0;exitX=-0.017;exitY=0.031;exitDx=0;exitDy=0;exitPerimeter=0;" parent="4D9p2KJwW67Cen0CYVgP-188" source="4D9p2KJwW67Cen0CYVgP-191" target="4D9p2KJwW67Cen0CYVgP-190" edge="1">
          <mxGeometry width="50" height="50" relative="1" as="geometry">
            <mxPoint x="-170" y="160" as="sourcePoint" />
            <mxPoint x="-120" y="110" as="targetPoint" />
          </mxGeometry>
        </mxCell>
        <mxCell id="4D9p2KJwW67Cen0CYVgP-193" value="CombatSystem" style="swimlane;fontStyle=0;childLayout=stackLayout;horizontal=1;startSize=30;horizontalStack=0;resizeParent=1;resizeParentMax=0;resizeLast=0;collapsible=1;marginBottom=0;whiteSpace=wrap;html=1;" parent="1" vertex="1">
          <mxGeometry x="650" y="960" width="140" height="160" as="geometry" />
        </mxCell>
        <mxCell id="4D9p2KJwW67Cen0CYVgP-194" value="std::vector&amp;lt;Character&amp;gt; participans" style="text;strokeColor=none;fillColor=none;align=left;verticalAlign=middle;spacingLeft=4;spacingRight=4;overflow=hidden;points=[[0,0.5],[1,0.5]];portConstraint=eastwest;rotatable=0;whiteSpace=wrap;html=1;" parent="4D9p2KJwW67Cen0CYVgP-193" vertex="1">
          <mxGeometry y="30" width="140" height="30" as="geometry" />
        </mxCell>
        <mxCell id="4D9p2KJwW67Cen0CYVgP-195" value="bool is CombatActive" style="text;strokeColor=none;fillColor=none;align=left;verticalAlign=middle;spacingLeft=4;spacingRight=4;overflow=hidden;points=[[0,0.5],[1,0.5]];portConstraint=eastwest;rotatable=0;whiteSpace=wrap;html=1;" parent="4D9p2KJwW67Cen0CYVgP-193" vertex="1">
          <mxGeometry y="60" width="140" height="30" as="geometry" />
        </mxCell>
        <mxCell id="4D9p2KJwW67Cen0CYVgP-196" value="void startCombat()" style="text;strokeColor=none;fillColor=none;align=left;verticalAlign=middle;spacingLeft=4;spacingRight=4;overflow=hidden;points=[[0,0.5],[1,0.5]];portConstraint=eastwest;rotatable=0;whiteSpace=wrap;html=1;" parent="4D9p2KJwW67Cen0CYVgP-193" vertex="1">
          <mxGeometry y="90" width="140" height="40" as="geometry" />
        </mxCell>
        <mxCell id="4D9p2KJwW67Cen0CYVgP-197" value="void endCombat()" style="text;strokeColor=none;fillColor=none;align=left;verticalAlign=middle;spacingLeft=4;spacingRight=4;overflow=hidden;points=[[0,0.5],[1,0.5]];portConstraint=eastwest;rotatable=0;whiteSpace=wrap;html=1;" parent="4D9p2KJwW67Cen0CYVgP-193" vertex="1">
          <mxGeometry y="130" width="140" height="30" as="geometry" />
        </mxCell>
        <mxCell id="4D9p2KJwW67Cen0CYVgP-204" value="" style="endArrow=none;html=1;rounded=0;exitX=0.005;exitY=0.27;exitDx=0;exitDy=0;exitPerimeter=0;entryX=0.995;entryY=0.29;entryDx=0;entryDy=0;entryPerimeter=0;" parent="4D9p2KJwW67Cen0CYVgP-193" source="4D9p2KJwW67Cen0CYVgP-196" target="4D9p2KJwW67Cen0CYVgP-196" edge="1">
          <mxGeometry width="50" height="50" relative="1" as="geometry">
            <mxPoint x="310" y="160" as="sourcePoint" />
            <mxPoint x="360" y="110" as="targetPoint" />
            <Array as="points">
              <mxPoint x="70" y="100" />
            </Array>
          </mxGeometry>
        </mxCell>
        <mxCell id="Om40HfqSlvNtKYWkFiGB-1" value="" style="endArrow=none;html=1;rounded=0;exitX=1.036;exitY=0.05;exitDx=0;exitDy=0;exitPerimeter=0;entryX=0;entryY=0.5;entryDx=0;entryDy=0;" parent="1" source="4D9p2KJwW67Cen0CYVgP-191" target="4D9p2KJwW67Cen0CYVgP-140" edge="1">
          <mxGeometry width="50" height="50" relative="1" as="geometry">
            <mxPoint x="1030" y="-40" as="sourcePoint" />
            <mxPoint x="1080" y="-90" as="targetPoint" />
          </mxGeometry>
        </mxCell>
        <mxCell id="Om40HfqSlvNtKYWkFiGB-2" value="In inventory lie Items" style="edgeLabel;html=1;align=center;verticalAlign=middle;resizable=0;points=[];" parent="Om40HfqSlvNtKYWkFiGB-1" vertex="1" connectable="0">
          <mxGeometry x="-0.0148" y="2" relative="1" as="geometry">
            <mxPoint as="offset" />
          </mxGeometry>
        </mxCell>
        <mxCell id="2SOZR0MVJdqEYpCiSv7c-1" value="" style="endArrow=classic;html=1;rounded=0;entryX=0;entryY=0.5;entryDx=0;entryDy=0;exitX=0.5;exitY=0;exitDx=0;exitDy=0;" edge="1" parent="1" source="4D9p2KJwW67Cen0CYVgP-12" target="4D9p2KJwW67Cen0CYVgP-190">
          <mxGeometry width="50" height="50" relative="1" as="geometry">
            <mxPoint x="550" y="230" as="sourcePoint" />
            <mxPoint x="600" y="180" as="targetPoint" />
            <Array as="points">
              <mxPoint x="300" y="-150" />
            </Array>
          </mxGeometry>
        </mxCell>
        <mxCell id="2SOZR0MVJdqEYpCiSv7c-2" value="Hero использует инвентарь" style="edgeLabel;html=1;align=center;verticalAlign=middle;resizable=0;points=[];" vertex="1" connectable="0" parent="2SOZR0MVJdqEYpCiSv7c-1">
          <mxGeometry x="-0.13" y="3" relative="1" as="geometry">
            <mxPoint as="offset" />
          </mxGeometry>
        </mxCell>
        <mxCell id="2SOZR0MVJdqEYpCiSv7c-6" style="edgeStyle=orthogonalEdgeStyle;rounded=0;orthogonalLoop=1;jettySize=auto;html=1;exitX=1;exitY=0.5;exitDx=0;exitDy=0;entryX=0;entryY=0.5;entryDx=0;entryDy=0;" edge="1" parent="1" source="4D9p2KJwW67Cen0CYVgP-194" target="4D9p2KJwW67Cen0CYVgP-172">
          <mxGeometry relative="1" as="geometry" />
        </mxCell>
        <mxCell id="2SOZR0MVJdqEYpCiSv7c-16" value="Начинаем бой в Dungeon" style="edgeLabel;html=1;align=center;verticalAlign=middle;resizable=0;points=[];" vertex="1" connectable="0" parent="2SOZR0MVJdqEYpCiSv7c-6">
          <mxGeometry x="-0.2782" y="3" relative="1" as="geometry">
            <mxPoint as="offset" />
          </mxGeometry>
        </mxCell>
        <mxCell id="2SOZR0MVJdqEYpCiSv7c-8" style="edgeStyle=orthogonalEdgeStyle;rounded=0;orthogonalLoop=1;jettySize=auto;html=1;entryX=0;entryY=0.167;entryDx=0;entryDy=0;entryPerimeter=0;" edge="1" parent="1" target="4D9p2KJwW67Cen0CYVgP-92">
          <mxGeometry relative="1" as="geometry">
            <mxPoint x="370" y="120" as="sourcePoint" />
            <mxPoint x="945.6599999999999" y="488.53999999999996" as="targetPoint" />
            <Array as="points">
              <mxPoint x="720" y="115" />
              <mxPoint x="720" y="490" />
            </Array>
          </mxGeometry>
        </mxCell>
        <mxCell id="2SOZR0MVJdqEYpCiSv7c-10" value="Hero использует Skills" style="edgeLabel;html=1;align=center;verticalAlign=middle;resizable=0;points=[];" vertex="1" connectable="0" parent="2SOZR0MVJdqEYpCiSv7c-8">
          <mxGeometry x="-0.6577" y="2" relative="1" as="geometry">
            <mxPoint as="offset" />
          </mxGeometry>
        </mxCell>
        <mxCell id="2SOZR0MVJdqEYpCiSv7c-18" style="edgeStyle=orthogonalEdgeStyle;rounded=0;orthogonalLoop=1;jettySize=auto;html=1;exitX=0;exitY=0.5;exitDx=0;exitDy=0;entryX=0.015;entryY=1.041;entryDx=0;entryDy=0;entryPerimeter=0;" edge="1" parent="1" source="4D9p2KJwW67Cen0CYVgP-195" target="4D9p2KJwW67Cen0CYVgP-9">
          <mxGeometry relative="1" as="geometry">
            <mxPoint x="227" y="321" as="targetPoint" />
            <mxPoint x="549.8300000000002" y="1043.91" as="sourcePoint" />
            <Array as="points">
              <mxPoint x="650" y="1044" />
              <mxPoint x="-120" y="1044" />
              <mxPoint x="-120" y="320" />
              <mxPoint x="130" y="320" />
              <mxPoint x="130" y="321" />
            </Array>
          </mxGeometry>
        </mxCell>
        <mxCell id="2SOZR0MVJdqEYpCiSv7c-21" value="Начинаем бой используя Hero" style="edgeLabel;html=1;align=center;verticalAlign=middle;resizable=0;points=[];" vertex="1" connectable="0" parent="2SOZR0MVJdqEYpCiSv7c-18">
          <mxGeometry x="0.8408" y="-2" relative="1" as="geometry">
            <mxPoint as="offset" />
          </mxGeometry>
        </mxCell>
      </root>
    </mxGraphModel>
  </diagram>
</mxfile>
